<svg width="18" height="16" viewBox="0 0 18 16" fill="none" xmlns="http://www.w3.org/2000/svg">
<path d="M17.4267 8.74778H16.5462V8.16076C16.5462 8.05132 16.4853 7.95099 16.3883 7.90045L3.3532 1.11132C2.63438 0.736941 1.74811 1.01614 1.37373 1.735C1.37119 1.7399 1.36865 1.7448 1.36618 1.7497L1.18053 2.11605C1.10838 2.25845 1.16326 2.43242 1.30411 2.50763L1.16587 2.76654C0.936839 3.19551 1.09887 3.72891 1.52784 3.95798L7.22373 6.99941C7.6527 7.22848 8.18614 7.06641 8.41521 6.63748C8.41521 6.63748 8.41521 6.63748 8.41521 6.63744L8.55345 6.37857L12.9135 8.70675C12.7939 8.89438 12.7305 9.11229 12.7307 9.33477H8.62163V9.04128C8.62107 8.55521 8.22717 8.16135 7.74111 8.16076H1.284C0.797937 8.16131 0.404069 8.55521 0.40348 9.04128V9.33477C0.241373 9.33477 0.109985 9.4662 0.109985 9.62827V10.2153C0.110906 11.0254 0.767402 11.6819 1.5775 11.6828H15.0787C15.7758 11.682 16.3765 11.1916 16.5168 10.5088H17.125C17.0553 11.7271 16.5487 12.1499 16.0977 12.5256C15.741 12.8229 15.3722 13.1302 15.3722 13.7373C15.3722 14.336 15.7327 14.8328 16.4149 15.1738C16.7202 15.3234 17.0443 15.4312 17.3784 15.4943V15.494C17.538 15.5219 17.6899 15.4152 17.7177 15.2556C17.7456 15.0961 17.6389 14.9442 17.4793 14.9164C17.4778 14.9161 17.4763 14.9158 17.4748 14.9156V14.9153C17.4597 14.9128 15.9591 14.6375 15.9591 13.7373C15.9591 13.4193 16.1261 13.266 16.4734 12.9766C16.9995 12.5381 17.7201 11.9376 17.7201 10.2153V9.04124C17.7203 8.87917 17.5888 8.74778 17.4267 8.74778ZM17.1332 9.33477V9.92176H16.5462V9.33477H17.1332ZM1.88981 2.01498C2.10953 1.58114 2.63935 1.40758 3.07318 1.62733C3.0762 1.62884 3.07919 1.63039 3.08217 1.63197L15.9468 8.33229C15.9067 8.5554 15.7377 8.87707 15.0324 9.0085C14.8529 8.38618 14.2029 8.0272 13.5805 8.20673C13.5096 8.22717 13.4408 8.25428 13.375 8.28765L1.83401 2.12507L1.88981 2.01498ZM13.9047 8.74778C14.2289 8.74778 14.4917 9.01059 14.4917 9.33481C14.4917 9.65899 14.2289 9.9218 13.9047 9.9218C13.5805 9.9218 13.3177 9.65899 13.3177 9.33481C13.3181 9.01074 13.5806 8.74815 13.9047 8.74778ZM7.89743 6.361C7.82107 6.50399 7.64327 6.55799 7.50028 6.48163L1.80436 3.4402C1.66137 3.36384 1.60733 3.18604 1.68369 3.04305L1.82189 2.78415L8.03567 6.10217L7.89743 6.361ZM0.990506 9.04128C0.99069 8.87924 1.122 8.74797 1.284 8.74778H7.74111C7.90314 8.74797 8.03442 8.87928 8.0346 9.04128V9.33477H0.990506V9.04128ZM15.0787 11.0958H1.5775C1.09143 11.0953 0.697564 10.7014 0.696975 10.2153V9.9218H12.8886C13.2125 10.4831 13.93 10.6756 14.4913 10.3518C14.7727 10.1894 14.9743 9.9176 15.0478 9.60112C15.4462 9.53751 15.7417 9.42071 15.9592 9.27558V10.2153C15.9587 10.7014 15.5648 11.0952 15.0787 11.0958Z" fill="#2563EB"/>
</svg>
