<svg width="6" height="18" viewBox="0 0 6 18" fill="none" xmlns="http://www.w3.org/2000/svg">
<path d="M1.2719 8.30876C1.11979 8.30876 0.996704 8.43198 0.996704 8.58396V8.61526C0.996704 9.26911 1.52881 9.80108 2.18266 9.80108H3.27482L3.76769 16.5429C3.78516 16.7697 3.89615 16.9817 4.07245 17.125C4.22187 17.2466 4.40407 17.3108 4.59461 17.3108C4.63143 17.3108 4.66825 17.3084 4.70533 17.3035C5.1157 17.2506 5.42529 16.8854 5.42529 16.4539V1.89754C5.42529 1.29193 4.93269 0.799194 4.32694 0.799194H2.18266C1.52881 0.799194 0.996704 1.33117 0.996704 1.98501C0.996704 2.13699 1.11979 2.26021 1.2719 2.26021H3.51562V2.82483H1.381C1.2289 2.82483 1.10581 2.94805 1.10581 3.10002C1.10581 3.252 1.2289 3.37521 1.381 3.37521H3.51562V3.91014H1.381C1.2289 3.91014 1.10581 4.03336 1.10581 4.18533C1.10581 4.33731 1.2289 4.46052 1.381 4.46052H3.51562V4.99545H1.381C1.2289 4.99545 1.10581 5.11867 1.10581 5.27065C1.10581 5.42262 1.2289 5.54584 1.381 5.54584H3.51562V6.08077H1.381C1.2289 6.08077 1.10581 6.20398 1.10581 6.35596C1.10581 6.50793 1.2289 6.63115 1.381 6.63115H3.51562V7.16608H1.381C1.2289 7.16608 1.10581 7.28929 1.10581 7.44127C1.10581 7.59324 1.2289 7.71646 1.381 7.71646H3.51562V8.30876H1.2719ZM1.6097 1.70982C1.71263 1.49685 1.93085 1.34958 2.18266 1.34958H4.32694C4.62901 1.34958 4.87491 1.59534 4.87491 1.89754V16.4539C4.87491 16.607 4.76956 16.7404 4.63492 16.7577C4.55752 16.7678 4.47959 16.7467 4.41939 16.6978C4.35919 16.6487 4.32238 16.5787 4.31646 16.5017L3.80505 9.50587C3.79457 9.36196 3.67498 9.2507 3.53066 9.2507H2.18266C1.91849 9.2507 1.69167 9.08879 1.59573 8.85915H3.79081C3.94291 8.85915 4.066 8.73593 4.066 8.58396V1.98501C4.066 1.83304 3.94291 1.70982 3.79081 1.70982H1.6097Z" fill="#2563EB"/>
</svg>
