<svg width="15" height="16" viewBox="0 0 15 16" fill="none" xmlns="http://www.w3.org/2000/svg">
<path d="M13.1585 10.0311C12.6278 9.30757 12.1946 7.63441 12.4136 5.5138C12.4873 4.81407 12.4564 4.15004 12.3207 3.54551C11.9304 1.77715 10.9879 1.13216 10.6024 0.937001C10.5405 0.906061 10.4762 0.86084 10.4024 0.79658C10.0002 0.444335 9.61227 0.284873 9.24813 0.320574C8.94586 0.349134 8.67216 0.515736 8.45082 0.80134C8.37704 0.898921 8.2509 0.941761 8.12951 0.910821C7.68921 0.8061 6.92522 0.80848 6.33735 1.77953C6.32307 1.79143 6.31117 1.80571 6.30165 1.82475C6.29213 1.84379 5.34488 3.57645 2.49122 4.91165L2.48408 4.48325C2.55786 4.40471 2.59832 4.30236 2.59832 4.19288L2.59118 3.774C2.5888 3.66214 2.54358 3.55979 2.46742 3.48363L2.42934 1.51297C2.4222 1.1155 2.09138 0.789439 1.69153 0.789439C1.29169 0.789439 0.960863 1.11312 0.953723 1.51297L0.910883 3.76686C0.837102 3.84064 0.791881 3.9406 0.789501 4.05008L0.777601 4.66413C0.775221 4.77361 0.815681 4.87357 0.889462 4.95211L0.877562 5.609C0.813301 5.68278 0.772841 5.7756 0.772841 5.87794V6.14451C0.772841 6.23733 0.806161 6.32777 0.863282 6.39917L0.827581 8.23179C0.613379 8.24845 0.442017 8.42696 0.442017 8.64592V10.7689C0.442017 10.9307 0.534838 11.0688 0.6705 11.1378V14.9316C0.6705 15.2695 0.944203 15.5432 1.28217 15.5432H2.09852C2.43648 15.5432 2.71019 15.2695 2.71019 14.9316V13.6416C2.80777 13.6416 2.88869 13.5607 2.88869 13.4631V13.0799C2.88869 12.9823 2.80777 12.9014 2.71019 12.9014V12.6848C2.80777 12.6848 2.88869 12.6039 2.88869 12.5063V11.74C2.88869 11.6424 2.80777 11.5615 2.71019 11.5615V11.1402C2.84585 11.0712 2.93867 10.9331 2.93867 10.7713V8.6483C2.93867 8.42934 2.76969 8.25083 2.5531 8.23417L2.5174 6.38489C3.87164 6.11119 4.90457 5.61138 5.65666 5.10681C5.66856 5.29246 5.68522 5.48048 5.71616 5.67326C5.81136 6.26589 5.83041 6.68715 5.66618 7.20838C5.60668 7.39402 5.521 7.68677 5.42342 8.02473C5.2354 8.66496 4.99025 9.50749 4.79509 10.0525L4.75463 10.0882C3.90734 10.8213 3.42181 11.8851 3.42181 13.0038V15.3719C3.42181 15.4695 3.50274 15.5504 3.60032 15.5504C3.6979 15.5504 3.77882 15.4695 3.77882 15.3719V12.999C3.77882 12.1922 4.06204 11.421 4.56185 10.8022C4.38573 11.8899 5.0926 12.6158 5.12592 12.6515C5.1759 12.7015 5.25206 12.7182 5.3187 12.692C5.38534 12.6658 5.42818 12.6015 5.43056 12.5301C5.43294 12.423 5.4496 12.2112 5.50196 11.9946C5.53528 12.492 5.69236 13.1489 6.20407 13.7463C6.23977 13.7868 6.28737 13.8082 6.33973 13.8082C6.36353 13.8082 6.38733 13.8034 6.41113 13.7939C6.48253 13.763 6.52537 13.6892 6.51823 13.6107C6.51585 13.5964 6.38019 12.2588 6.86572 11.5091C7.2846 10.8641 7.15846 10.1001 7.03232 9.50511C7.10372 9.50511 7.17988 9.50273 7.22986 9.50273C7.27032 9.95256 7.46786 10.3524 7.79631 10.6451C8.11761 10.9307 8.54126 11.0878 8.98632 11.0878C9.9312 11.0878 10.6571 10.419 10.7428 9.50511C12.6516 9.52891 14.1962 11.0854 14.1962 12.999V15.3671C14.1962 15.4647 14.2771 15.5456 14.3747 15.5456C14.4723 15.5456 14.5556 15.4647 14.5556 15.3671V12.999C14.5556 11.8066 14.0106 10.7403 13.1585 10.0311ZM8.04859 1.25593C8.30564 1.31781 8.57696 1.22498 8.73642 1.01554C8.8459 0.872741 9.03155 0.696618 9.28621 0.672818C9.54801 0.646638 9.84314 0.777539 10.1692 1.06314C10.2668 1.14882 10.3525 1.20832 10.4429 1.25355C10.7095 1.38683 11.6067 1.95565 11.9733 3.62168C12.0994 4.1905 12.128 4.81407 12.0589 5.47572C11.8685 7.30358 12.1399 8.71732 12.5183 9.60031C11.9756 9.30995 11.3592 9.14334 10.7023 9.14334H9.92168V8.07233C10.8332 7.58205 11.4806 6.40393 11.4806 5.02589C11.4806 4.78789 11.4616 4.55703 11.4259 4.34282C11.4259 4.34044 11.4259 4.33806 11.4259 4.33806C11.4259 4.3333 11.4259 4.32854 11.4235 4.32378C11.4235 4.31664 11.4187 4.31188 11.4163 4.30712C11.4116 4.29284 11.4068 4.27856 11.3997 4.26666C11.3949 4.25714 11.3878 4.25 11.3806 4.24286C11.3735 4.23572 11.3711 4.2262 11.364 4.22144C10.5976 3.56455 9.9907 2.98145 9.75745 1.98421C9.68843 1.68909 9.54563 1.45585 9.33381 1.28925C9.25527 1.22737 9.14341 1.24165 9.08391 1.32019C9.0244 1.39873 9.03631 1.51059 9.11485 1.57009C9.19577 1.63197 9.26003 1.71051 9.31001 1.80333C9.05058 1.81047 8.79116 1.92709 8.60076 2.13892C8.44606 2.31028 8.18187 2.55304 7.79393 2.73392C7.37028 2.93147 7.07754 3.24801 6.88714 3.52171C6.74196 3.7026 6.45873 4.02152 6.02081 4.37853C6.08269 3.29561 6.39923 2.47212 6.40399 2.4626C6.87524 1.25355 7.55831 1.1393 8.04859 1.25593ZM7.27746 9.14573C7.22748 9.14573 7.07754 9.14572 6.96092 9.1481C6.94664 9.07194 6.93474 9.00292 6.9276 8.94342C6.83954 8.17705 6.94902 7.54396 7.03232 7.07748C7.30126 7.52016 7.65351 7.86765 8.05811 8.07947V9.14334H7.27746V9.14573ZM7.28936 3.58121C7.44645 3.38843 7.66303 3.19089 7.94387 3.05761C8.38656 2.85055 8.6912 2.57446 8.86494 2.37692C9.01964 2.20318 9.23861 2.12702 9.43853 2.16748C9.70747 3.17899 10.3358 3.80494 11.076 4.44279C11.1046 4.62605 11.1212 4.82121 11.1212 5.02589C11.1212 6.64193 10.1621 7.95809 8.98157 7.95809C7.80107 7.95809 6.83954 6.64193 6.83954 5.02589C6.83954 4.73315 6.87286 4.44041 6.93712 4.15718C6.95378 4.11672 7.0228 3.95012 7.15846 3.7502C7.2251 3.67166 7.26794 3.61215 7.28936 3.58121ZM8.41512 8.22703C8.59838 8.28415 8.7864 8.31509 8.98394 8.31509C9.18387 8.31509 9.37903 8.27939 9.56467 8.22227V9.32185C9.56467 9.71931 9.27669 9.89543 8.99108 9.89543C8.70548 9.89543 8.4175 9.71693 8.4175 9.32185V8.22703H8.41512ZM5.87086 2.97669C5.76614 3.39795 5.65666 3.99058 5.64952 4.66175C4.71179 5.3353 3.25521 6.04931 1.19173 6.20401C1.17031 6.20877 1.15603 6.19449 1.14889 6.18735C1.14175 6.18021 1.12985 6.16593 1.12985 6.14213V5.87556C1.12985 5.85176 1.14651 5.82796 1.17269 5.82082C1.61061 5.67326 2.01522 5.5138 2.39126 5.3472C2.39364 5.3472 2.39364 5.3472 2.39602 5.34482C4.14296 4.57845 5.2354 3.65976 5.87086 2.97669ZM2.14374 3.73116C2.15326 3.72402 2.16516 3.72164 2.1723 3.72164C2.17944 3.72164 2.18182 3.72402 2.18658 3.7264C2.1961 3.73354 2.208 3.74306 2.2199 3.74782C2.22466 3.75496 2.22942 3.76686 2.2318 3.78114L2.23894 4.20002C2.23894 4.21668 2.2318 4.23334 2.22228 4.24286C2.08186 4.36187 1.76531 4.58559 1.20839 4.73315C1.18459 4.74029 1.16555 4.72839 1.15603 4.72125C1.14651 4.71411 1.13223 4.69745 1.13223 4.67365L1.14413 4.0596C1.14413 4.02866 1.16793 4.00486 1.19649 4.00248C1.56301 3.9763 1.88194 3.88586 2.14374 3.73116ZM1.23695 5.42098L1.24409 5.08539C1.26313 5.08301 1.28217 5.08301 1.30121 5.07825C1.66059 4.98305 1.9343 4.85691 2.13184 4.74029L2.13898 5.07111C1.85575 5.1925 1.55349 5.30912 1.23695 5.42098ZM1.69153 1.14882C1.89622 1.14882 2.06758 1.31543 2.07234 1.52249L2.10804 3.37415C2.05806 3.38367 2.01046 3.39557 1.96524 3.42413C1.77483 3.53599 1.53921 3.60739 1.27265 3.63834L1.31311 1.52487C1.31549 1.31543 1.48447 1.14882 1.69153 1.14882ZM2.35318 14.934C2.35318 15.0744 2.23894 15.1886 2.09852 15.1886H1.28217C1.14175 15.1886 1.0275 15.0744 1.0275 14.934V11.1854H2.35318V14.934ZM2.58404 8.64592V10.7689C2.58404 10.8022 2.55786 10.8284 2.52454 10.8284H0.858522C0.825201 10.8284 0.799021 10.8022 0.799021 10.7689V8.64592C0.799021 8.6126 0.825201 8.58642 0.858522 8.58642H2.52454C2.55548 8.58642 2.58404 8.6126 2.58404 8.64592ZM2.19848 8.22941H1.18221L1.21315 6.56101H1.21791C1.54873 6.53721 1.86289 6.49675 2.16278 6.44677L2.19848 8.22941ZM6.57059 11.3139C6.24453 11.8185 6.15885 12.5135 6.14695 13.0157C5.7114 12.1565 5.89943 11.302 5.90181 11.2901C5.91847 11.2187 5.88991 11.145 5.82802 11.1021C5.76852 11.0593 5.6876 11.0593 5.6281 11.0997C5.32822 11.2997 5.19018 11.709 5.1283 12.0375C4.94027 11.69 4.75939 11.1164 5.04023 10.419C5.25206 9.89543 5.53766 8.9101 5.76852 8.11993C5.86611 7.78435 5.95179 7.49636 6.00891 7.3131C6.19455 6.72761 6.17313 6.24447 6.07317 5.61376C6.03271 5.35672 6.01367 5.10205 6.00891 4.85691C6.20883 4.70459 6.38257 4.55703 6.53489 4.41899C6.50633 4.62129 6.48491 4.82359 6.48491 5.02827C6.48491 5.55188 6.58011 6.04693 6.74672 6.48723C6.75862 6.58005 6.7253 6.77284 6.68484 6.99418C6.60153 7.4559 6.47777 8.15563 6.57297 8.98388C6.58725 9.11716 6.62295 9.27425 6.65866 9.44323C6.77766 9.99064 6.9395 10.7427 6.57059 11.3139ZM8.9887 10.7308C8.6317 10.7308 8.29374 10.6047 8.03669 10.3762C7.78679 10.1525 7.63209 9.84783 7.59163 9.50035H8.07239C8.11523 9.75501 8.24138 9.92161 8.35086 10.0192C8.51984 10.1691 8.74594 10.2524 8.98632 10.2524C9.40045 10.2524 9.81695 9.99302 9.90026 9.50035H10.3834C10.3025 10.2144 9.73127 10.7308 8.9887 10.7308Z" fill="#2563EB"/>
</svg>
