<svg width="12" height="17" viewBox="0 0 12 17" fill="none" xmlns="http://www.w3.org/2000/svg">
<path d="M8.8015 2.65728L11.0029 2.99538C11.0169 2.99752 11.0311 2.9986 11.0449 2.9986C11.1784 2.9986 11.2956 2.90132 11.3166 2.76506C11.3397 2.61484 11.2365 2.47455 11.0862 2.45144L8.78612 2.09818C8.61254 0.963742 7.63124 0.0908203 6.44696 0.0908203C4.146 0.0908203 2.27422 1.96368 2.27422 4.26571V12.562C1.28498 12.6967 0.520142 13.5472 0.520142 14.5727C0.520142 15.6918 1.43037 16.6023 2.54941 16.6023C3.66737 16.6023 4.57679 15.6918 4.57679 14.5727V12.866C4.57679 12.0869 4.881 11.354 5.43327 10.8015C5.98311 10.2495 6.71624 9.94556 7.4972 9.94556C7.63372 9.94556 7.74955 9.84559 7.76944 9.71068L7.80598 9.46364L9.95914 9.79426C9.97311 9.79641 9.98736 9.79748 10.0011 9.79748C10.1346 9.79748 10.2518 9.7002 10.2728 9.56395C10.2959 9.41372 10.1927 9.27344 10.0424 9.25033L7.88647 8.91927L7.94969 8.49172L10.1075 8.82222C10.1217 8.82437 10.1357 8.82545 10.1494 8.82545C10.283 8.82545 10.4004 8.72816 10.4211 8.59191C10.4442 8.44168 10.341 8.30113 10.1908 8.27829L8.03018 7.94735L8.09334 7.52004L10.2574 7.8526C10.2717 7.85475 10.2859 7.85583 10.2996 7.85583C10.4332 7.85583 10.5504 7.75854 10.5713 7.62256C10.5944 7.47233 10.4915 7.33178 10.3413 7.30867L8.17386 6.97558L8.23711 6.54786L10.4061 6.88084C10.42 6.88299 10.4343 6.88406 10.448 6.88406C10.5815 6.88406 10.6987 6.78678 10.7197 6.65052C10.7428 6.5003 10.6396 6.36001 10.4894 6.3369L8.3176 6.0035L8.38109 5.57411L10.5539 5.9088C10.5681 5.91095 10.5821 5.91202 10.5961 5.91202C10.7296 5.91202 10.8468 5.81474 10.8678 5.67876C10.8909 5.52853 10.7879 5.38798 10.6377 5.36487L8.46158 5.02968L8.52446 4.6045L10.7046 4.93918C10.7186 4.94133 10.7328 4.94241 10.7466 4.94241C10.8801 4.94241 10.9973 4.84512 11.0182 4.70887C11.0414 4.55864 10.9382 4.41836 10.7879 4.39525L8.60495 4.06014L8.66817 3.63261L10.8527 3.96741C10.8667 3.96956 10.8809 3.97064 10.8946 3.97064C11.0282 3.97064 11.1456 3.87335 11.1663 3.7371C11.1894 3.58687 11.0862 3.44632 10.936 3.42348L8.74866 3.08826L8.79092 2.80242C8.79801 2.75122 8.7974 2.70584 8.8015 2.65728ZM5.04386 10.4126C4.38786 11.0686 4.02641 11.9399 4.02641 12.866V14.5727C4.02641 15.3884 3.36396 16.0519 2.54941 16.0519C1.73405 16.0519 1.07052 15.3884 1.07052 14.5727C1.07052 13.7574 1.73405 13.0939 2.54941 13.0939C2.70151 13.0939 2.8246 12.9708 2.8246 12.8187V4.26571C2.8246 2.26709 4.44968 0.641202 6.44696 0.641202C7.4499 0.641202 8.2658 1.45522 8.2658 2.45574C8.2658 2.5412 8.25935 2.62989 8.24618 2.72448L8.16482 3.27458C8.16469 3.27547 8.16408 3.27613 8.16395 3.27702C8.16381 3.27796 8.16422 3.2788 8.16408 3.27974L8.02138 4.2448C8.02111 4.24625 8.0201 4.24732 8.0199 4.24878C8.01967 4.25033 8.02034 4.25172 8.0201 4.25327L7.58971 7.16397L7.44634 8.13332C7.44617 8.13435 7.44547 8.1351 7.44533 8.13613C7.44517 8.13718 7.44564 8.13816 7.44547 8.13922L7.30287 9.10358C7.3026 9.10516 7.30152 9.10631 7.30129 9.10789C7.30102 9.10956 7.30176 9.11108 7.30152 9.11275L7.25856 9.40324C6.42009 9.45968 5.64101 9.81307 5.04386 10.4126Z" fill="#2563EB"/>
</svg>
