<svg width="7" height="18" viewBox="0 0 7 18" fill="none" xmlns="http://www.w3.org/2000/svg">
<path d="M1.27291 8.56137C1.13612 8.53127 1.00014 8.60961 0.955261 8.7417C0.910381 8.87365 0.970848 9.01823 1.09662 9.07856C1.32881 9.19023 1.54676 9.34032 1.75611 9.5361C2.19792 9.95856 2.42689 10.5978 2.36857 11.2457L2.01061 15.2245C2.0055 15.2838 2.00281 15.3404 2.00281 15.3971C2.00281 16.4521 2.86225 17.3105 3.91867 17.3105C4.45535 17.3105 4.97106 17.0832 5.33305 16.6866C5.69505 16.2905 5.87484 15.7569 5.82646 15.2229L5.46904 11.2499C5.43249 10.8437 5.51714 10.4263 5.71359 10.0428C7.70335 6.16165 6.82349 2.47412 4.86733 1.28346C3.40484 0.392718 1.52338 0.924691 0.533069 1.32095C0.405148 1.37214 0.334738 1.51001 0.36833 1.64357C0.401654 1.77714 0.527425 1.86502 0.666096 1.84997C1.1458 1.79595 2.21581 1.75811 3.18056 2.29446H0.63519C0.483083 2.29446 0.359999 2.41768 0.359999 2.56965C0.359999 2.72163 0.483083 2.84485 0.63519 2.84485H3.89999C4.11379 3.06189 4.29833 3.3144 4.45362 3.59127H0.63519C0.483083 3.59127 0.359999 3.71449 0.359999 3.86646C0.359999 4.01844 0.483083 4.14166 0.63519 4.14166H4.71292C4.80291 4.38095 4.86917 4.63167 4.9156 4.88808H0.63519C0.483083 4.88808 0.359999 5.0113 0.359999 5.16328C0.359999 5.31525 0.483083 5.43847 0.63519 5.43847H4.98272C4.99064 5.59455 4.99132 5.75131 4.98181 5.90796C4.97613 6.00163 4.96478 6.09225 4.95302 6.18261H0.63519C0.483083 6.18261 0.359999 6.30583 0.359999 6.4578C0.359999 6.60977 0.483083 6.73299 0.63519 6.73299H4.83719C4.75746 7.00437 4.6499 7.25623 4.51039 7.47942H0.63519C0.483083 7.47942 0.359999 7.60264 0.359999 7.75461C0.359999 7.90658 0.483083 8.0298 0.63519 8.0298H4.04214C3.99484 8.07168 3.94875 8.11499 3.89825 8.15302C3.0716 8.77569 2.01437 8.71859 1.27291 8.56137ZM4.58139 1.75349C6.3274 2.81636 7.06939 6.19175 5.22395 9.7918C4.97966 10.2679 4.87485 10.7891 4.92081 11.2992L5.27823 15.2722C5.31344 15.6584 5.18847 16.029 4.92672 16.3155C4.66496 16.6022 4.30673 16.7601 3.91867 16.7601C3.16566 16.7601 2.5532 16.1486 2.5532 15.3971C2.5532 15.3554 2.55535 15.3139 2.55884 15.2722L2.9168 11.295C2.98694 10.5143 2.73621 9.76896 2.21297 9.21603H2.21593C2.87784 9.21603 3.60048 9.06634 4.22933 8.59268C5.00035 8.01247 5.46259 7.0708 5.53112 5.94128C5.54674 5.68445 5.53459 5.42767 5.50876 5.17287C5.50888 5.16949 5.51069 5.16668 5.51069 5.16328C5.51069 5.1535 5.50612 5.14522 5.50513 5.1357C5.45395 4.66679 5.33561 4.2106 5.15748 3.78609C5.15182 3.76785 5.14475 3.75129 5.13561 3.7349C4.91264 3.2207 4.60771 2.75512 4.22557 2.38718C3.64294 1.82591 2.96383 1.53581 2.33632 1.39378C3.08047 1.28991 3.89529 1.33586 4.58139 1.75349Z" fill="#2563EB"/>
</svg>
